<?xml version="1.0" encoding="UTF-8"?>
<svg id="Camada_1" data-name="Camada 1" xmlns="http://www.w3.org/2000/svg" viewBox="0 0 278.95 257">
  <path d="m125.66,1.01c-1.85,4.35-4.95,8.62-5.23,13.07-.34,5.37.19,11.89,3,16.17,10.1,15.44,21.05,30.34,32.21,45.04,5.62,7.4,8.91,7.06,15.91.44,7.98-7.55,15.91-15.14,23.96-22.61,5.22-4.84,11.08-9.07,15.84-14.31,7.24-7.97,6.63-19.37-.7-27.41-1.54-1.69-3.15-3.33-4.21-6.14,2.51.72,5.19,1.09,7.51,2.2,20.3,9.67,26.48,35.44,13.42,53.52-3.93,5.44-7.08,11.78-9.13,18.18-2.56,7.98.42,15.44,5.53,21.87,8.71,10.94,18.25,21.28,26.14,32.77,13.28,19.32,23.48,40.37,28.58,63.35,1.31,5.89-.36,12.97-2.33,18.94-5.29,15.97-18.3,23.72-33.11,29.61-19.25,7.66-39.45,9.12-59.74,10.4-6.15.39-12.31.95-18.45.88-9.55-.1-12.31-2.72-13.62-11.99-.33-2.3-.61-4.65-.54-6.97.62-22.13,1.32-44.27,1.98-66.4.14-4.8,3.76-6.22,7.37-6.58,2.81-.28,5.8.88,8.67,1.58,9.51,2.31,18.89,5.52,28.53,6.83,10.37,1.41,17.04-4.86,16.92-15.44-.14-12.61-4.7-24.18-11.93-34.38-3.4-4.79-7.81-9.14-12.56-12.62-6.61-4.85-10.71-3.73-15.91,2.51-5.52,6.63-10.91,13.39-16.82,19.66-4.1,4.35-9.27,4.13-13.69-.05-2.77-2.62-5.06-5.74-7.54-8.65-7.56-8.86-21.85-10.32-31.59-3.81-10.03,6.71-16.36,16.6-22.62,26.26-7.32,11.3.06,23.43,13.55,23.62,3.32.05,6.64-.46,9.96-.5,5.41-.07,10.86-.36,16.23.17,6.13.61,9.99,5.17,9.45,11.24-.44,4.92-1.39,9.95-3.1,14.56-4.51,12.17-9.59,24.12-14.4,36.18-5.93,14.88-19.98,22.57-35.02,21.32-16.93-1.41-34.11-3.33-48.44-13.68C11.22,226.48,1.55,207.92.18,185.12c-.73-12.17.65-24.09,6.8-34.81,8.83-15.38,20.27-28.41,36-37.19,3.46-1.93,6.74-4.37,10.41-5.72,12.48-4.55,25.11-8.71,37.67-13.04,7.46-2.57,13.63-10.34,12.93-18.17-.93-10.39-3.18-20.65-4.51-31.01-1.74-13.56.03-26.51,10.5-36.31,4.18-3.91,10.09-5.97,15.21-8.87.16.34.31.67.47,1.01Z"/>
</svg>